<?xml version="1.0" encoding="UTF-8" standalone="no"?>
<!DOCTYPE svg PUBLIC "-//W3C//DTD SVG 1.1//EN"
 "http://www.w3.org/Graphics/SVG/1.1/DTD/svg11.dtd">
<!-- Generated by graphviz version 2.36.0 (20140111.2315)
 -->
<!-- Title: controllers_diagram Pages: 1 -->
<svg width="633pt" height="672pt"
 viewBox="0.00 0.00 633.00 672.00" xmlns="http://www.w3.org/2000/svg" xmlns:xlink="http://www.w3.org/1999/xlink">
<g id="graph0" class="graph" transform="scale(1 1) rotate(0) translate(4 668)">
<title>controllers_diagram</title>
<polygon fill="none" stroke="none" points="-4,4 -4,-668 629,-668 629,4 -4,4"/>
<!-- _diagram_info -->
<g id="node1" class="node"><title>_diagram_info</title>
<text text-anchor="start" x="350" y="-117.6" font-family="Times,serif" font-size="13.00">Controllers diagram</text>
<text text-anchor="start" x="350" y="-103.6" font-family="Times,serif" font-size="13.00">Date: May 17 2017 &#45; 09:24</text>
<text text-anchor="start" x="350" y="-89.6" font-family="Times,serif" font-size="13.00">Migration version: 20170424032636</text>
<text text-anchor="start" x="350" y="-75.6" font-family="Times,serif" font-size="13.00">Generated by RailRoady 1.5.2</text>
<text text-anchor="start" x="350" y="-61.6" font-family="Times,serif" font-size="13.00">http://railroady.prestonlee.com</text>
</g>
<!-- TimetablesController -->
<g id="node2" class="node"><title>TimetablesController</title>
<path fill="none" stroke="black" d="M120,-450.5C120,-450.5 229,-450.5 229,-450.5 235,-450.5 241,-456.5 241,-462.5 241,-462.5 241,-576.5 241,-576.5 241,-582.5 235,-588.5 229,-588.5 229,-588.5 120,-588.5 120,-588.5 114,-588.5 108,-582.5 108,-576.5 108,-576.5 108,-462.5 108,-462.5 108,-456.5 114,-450.5 120,-450.5"/>
<text text-anchor="middle" x="174.5" y="-573.3" font-family="Times,serif" font-size="14.00">TimetablesController</text>
<polyline fill="none" stroke="black" points="108,-565.5 241,-565.5 "/>
<text text-anchor="start" x="116" y="-550.3" font-family="Times,serif" font-size="14.00">create</text>
<text text-anchor="start" x="116" y="-535.3" font-family="Times,serif" font-size="14.00">index</text>
<text text-anchor="start" x="116" y="-520.3" font-family="Times,serif" font-size="14.00">update_nodes</text>
<polyline fill="none" stroke="black" points="108,-512.5 241,-512.5 "/>
<polyline fill="none" stroke="black" points="108,-488.5 241,-488.5 "/>
<text text-anchor="start" x="116" y="-473.3" font-family="Times,serif" font-size="14.00">_layout</text>
<text text-anchor="start" x="116" y="-458.3" font-family="Times,serif" font-size="14.00">set_bus_route</text>
</g>
<!-- ApplicationController -->
<g id="node3" class="node"><title>ApplicationController</title>
<path fill="none" stroke="black" d="M12,-306.5C12,-306.5 128,-306.5 128,-306.5 134,-306.5 140,-312.5 140,-318.5 140,-318.5 140,-402.5 140,-402.5 140,-408.5 134,-414.5 128,-414.5 128,-414.5 12,-414.5 12,-414.5 6,-414.5 0,-408.5 0,-402.5 0,-402.5 0,-318.5 0,-318.5 0,-312.5 6,-306.5 12,-306.5"/>
<text text-anchor="middle" x="70" y="-399.3" font-family="Times,serif" font-size="14.00">ApplicationController</text>
<polyline fill="none" stroke="black" points="0,-391.5 140,-391.5 "/>
<text text-anchor="start" x="8" y="-376.3" font-family="Times,serif" font-size="14.00">after_sign_in_path_for</text>
<text text-anchor="start" x="8" y="-361.3" font-family="Times,serif" font-size="14.00">set_global_api</text>
<polyline fill="none" stroke="black" points="0,-353.5 140,-353.5 "/>
<polyline fill="none" stroke="black" points="0,-329.5 140,-329.5 "/>
<text text-anchor="start" x="8" y="-314.3" font-family="Times,serif" font-size="14.00">_layout</text>
</g>
<!-- SearchController -->
<g id="node4" class="node"><title>SearchController</title>
<path fill="none" stroke="black" d="M12,-0.5C12,-0.5 97,-0.5 97,-0.5 103,-0.5 109,-6.5 109,-12.5 109,-12.5 109,-81.5 109,-81.5 109,-87.5 103,-93.5 97,-93.5 97,-93.5 12,-93.5 12,-93.5 6,-93.5 0,-87.5 0,-81.5 0,-81.5 0,-12.5 0,-12.5 0,-6.5 6,-0.5 12,-0.5"/>
<text text-anchor="middle" x="54.5" y="-78.3" font-family="Times,serif" font-size="14.00">SearchController</text>
<polyline fill="none" stroke="black" points="0,-70.5 109,-70.5 "/>
<text text-anchor="start" x="8" y="-55.3" font-family="Times,serif" font-size="14.00">index</text>
<polyline fill="none" stroke="black" points="0,-47.5 109,-47.5 "/>
<polyline fill="none" stroke="black" points="0,-23.5 109,-23.5 "/>
<text text-anchor="start" x="8" y="-8.3" font-family="Times,serif" font-size="14.00">_layout</text>
</g>
<!-- BusRoutesController -->
<g id="node5" class="node"><title>BusRoutesController</title>
<path fill="none" stroke="black" d="M192,-72.5C192,-72.5 299,-72.5 299,-72.5 305,-72.5 311,-78.5 311,-84.5 311,-84.5 311,-408.5 311,-408.5 311,-414.5 305,-420.5 299,-420.5 299,-420.5 192,-420.5 192,-420.5 186,-420.5 180,-414.5 180,-408.5 180,-408.5 180,-84.5 180,-84.5 180,-78.5 186,-72.5 192,-72.5"/>
<text text-anchor="middle" x="245.5" y="-405.3" font-family="Times,serif" font-size="14.00">BusRoutesController</text>
<polyline fill="none" stroke="black" points="180,-397.5 311,-397.5 "/>
<text text-anchor="start" x="188" y="-382.3" font-family="Times,serif" font-size="14.00">add_bus_stations</text>
<text text-anchor="start" x="188" y="-367.3" font-family="Times,serif" font-size="14.00">create</text>
<text text-anchor="start" x="188" y="-352.3" font-family="Times,serif" font-size="14.00">destroy</text>
<text text-anchor="start" x="188" y="-337.3" font-family="Times,serif" font-size="14.00">destroy_bus_stations</text>
<text text-anchor="start" x="188" y="-322.3" font-family="Times,serif" font-size="14.00">edit</text>
<text text-anchor="start" x="188" y="-307.3" font-family="Times,serif" font-size="14.00">index</text>
<text text-anchor="start" x="188" y="-292.3" font-family="Times,serif" font-size="14.00">new</text>
<text text-anchor="start" x="188" y="-277.3" font-family="Times,serif" font-size="14.00">search_bus_stop</text>
<text text-anchor="start" x="188" y="-262.3" font-family="Times,serif" font-size="14.00">show</text>
<text text-anchor="start" x="188" y="-247.3" font-family="Times,serif" font-size="14.00">update</text>
<text text-anchor="start" x="188" y="-232.3" font-family="Times,serif" font-size="14.00">update_bus_stations</text>
<polyline fill="none" stroke="black" points="180,-224.5 311,-224.5 "/>
<polyline fill="none" stroke="black" points="180,-200.5 311,-200.5 "/>
<text text-anchor="start" x="188" y="-185.3" font-family="Times,serif" font-size="14.00">_layout</text>
<text text-anchor="start" x="188" y="-170.3" font-family="Times,serif" font-size="14.00">add_nodes</text>
<text text-anchor="start" x="188" y="-155.3" font-family="Times,serif" font-size="14.00">bus_route_params</text>
<text text-anchor="start" x="188" y="-140.3" font-family="Times,serif" font-size="14.00">delete_nodes</text>
<text text-anchor="start" x="188" y="-125.3" font-family="Times,serif" font-size="14.00">list_bus_stations</text>
<text text-anchor="start" x="188" y="-110.3" font-family="Times,serif" font-size="14.00">set_bus_route</text>
<text text-anchor="start" x="188" y="-95.3" font-family="Times,serif" font-size="14.00">set_route</text>
<text text-anchor="start" x="188" y="-80.3" font-family="Times,serif" font-size="14.00">update_links</text>
</g>
<!-- DistancesController -->
<g id="node6" class="node"><title>DistancesController</title>
<path fill="none" stroke="black" d="M444,-432.5C444,-432.5 545,-432.5 545,-432.5 551,-432.5 557,-438.5 557,-444.5 557,-444.5 557,-648.5 557,-648.5 557,-654.5 551,-660.5 545,-660.5 545,-660.5 444,-660.5 444,-660.5 438,-660.5 432,-654.5 432,-648.5 432,-648.5 432,-444.5 432,-444.5 432,-438.5 438,-432.5 444,-432.5"/>
<text text-anchor="middle" x="494.5" y="-645.3" font-family="Times,serif" font-size="14.00">DistancesController</text>
<polyline fill="none" stroke="black" points="432,-637.5 557,-637.5 "/>
<text text-anchor="start" x="440" y="-622.3" font-family="Times,serif" font-size="14.00">create</text>
<text text-anchor="start" x="440" y="-607.3" font-family="Times,serif" font-size="14.00">destroy</text>
<text text-anchor="start" x="440" y="-592.3" font-family="Times,serif" font-size="14.00">edit</text>
<text text-anchor="start" x="440" y="-577.3" font-family="Times,serif" font-size="14.00">index</text>
<text text-anchor="start" x="440" y="-562.3" font-family="Times,serif" font-size="14.00">new</text>
<text text-anchor="start" x="440" y="-547.3" font-family="Times,serif" font-size="14.00">show</text>
<text text-anchor="start" x="440" y="-532.3" font-family="Times,serif" font-size="14.00">update</text>
<polyline fill="none" stroke="black" points="432,-524.5 557,-524.5 "/>
<polyline fill="none" stroke="black" points="432,-500.5 557,-500.5 "/>
<text text-anchor="start" x="440" y="-485.3" font-family="Times,serif" font-size="14.00">_layout</text>
<text text-anchor="start" x="440" y="-470.3" font-family="Times,serif" font-size="14.00">distance_params</text>
<text text-anchor="start" x="440" y="-455.3" font-family="Times,serif" font-size="14.00">get_distance</text>
<text text-anchor="start" x="440" y="-440.3" font-family="Times,serif" font-size="14.00">set_distance</text>
</g>
<!-- BusLinesController -->
<g id="node7" class="node"><title>BusLinesController</title>
<path fill="none" stroke="black" d="M282,-450.5C282,-450.5 381,-450.5 381,-450.5 387,-450.5 393,-456.5 393,-462.5 393,-462.5 393,-651.5 393,-651.5 393,-657.5 387,-663.5 381,-663.5 381,-663.5 282,-663.5 282,-663.5 276,-663.5 270,-657.5 270,-651.5 270,-651.5 270,-462.5 270,-462.5 270,-456.5 276,-450.5 282,-450.5"/>
<text text-anchor="middle" x="331.5" y="-648.3" font-family="Times,serif" font-size="14.00">BusLinesController</text>
<polyline fill="none" stroke="black" points="270,-640.5 393,-640.5 "/>
<text text-anchor="start" x="278" y="-625.3" font-family="Times,serif" font-size="14.00">create</text>
<text text-anchor="start" x="278" y="-610.3" font-family="Times,serif" font-size="14.00">destroy</text>
<text text-anchor="start" x="278" y="-595.3" font-family="Times,serif" font-size="14.00">edit</text>
<text text-anchor="start" x="278" y="-580.3" font-family="Times,serif" font-size="14.00">index</text>
<text text-anchor="start" x="278" y="-565.3" font-family="Times,serif" font-size="14.00">new</text>
<text text-anchor="start" x="278" y="-550.3" font-family="Times,serif" font-size="14.00">show</text>
<text text-anchor="start" x="278" y="-535.3" font-family="Times,serif" font-size="14.00">update</text>
<polyline fill="none" stroke="black" points="270,-527.5 393,-527.5 "/>
<polyline fill="none" stroke="black" points="270,-503.5 393,-503.5 "/>
<text text-anchor="start" x="278" y="-488.3" font-family="Times,serif" font-size="14.00">_layout</text>
<text text-anchor="start" x="278" y="-473.3" font-family="Times,serif" font-size="14.00">bus_line_params</text>
<text text-anchor="start" x="278" y="-458.3" font-family="Times,serif" font-size="14.00">set_bus_line</text>
</g>
<!-- HomeController -->
<g id="node8" class="node"><title>HomeController</title>
<path fill="none" stroke="black" d="M48,-126.5C48,-126.5 130,-126.5 130,-126.5 136,-126.5 142,-132.5 142,-138.5 142,-138.5 142,-252.5 142,-252.5 142,-258.5 136,-264.5 130,-264.5 130,-264.5 48,-264.5 48,-264.5 42,-264.5 36,-258.5 36,-252.5 36,-252.5 36,-138.5 36,-138.5 36,-132.5 42,-126.5 48,-126.5"/>
<text text-anchor="middle" x="89" y="-249.3" font-family="Times,serif" font-size="14.00">HomeController</text>
<polyline fill="none" stroke="black" points="36,-241.5 142,-241.5 "/>
<text text-anchor="start" x="44" y="-226.3" font-family="Times,serif" font-size="14.00">index</text>
<text text-anchor="start" x="44" y="-211.3" font-family="Times,serif" font-size="14.00">show_bus_line</text>
<text text-anchor="start" x="44" y="-196.3" font-family="Times,serif" font-size="14.00">show_bus_route</text>
<polyline fill="none" stroke="black" points="36,-188.5 142,-188.5 "/>
<polyline fill="none" stroke="black" points="36,-164.5 142,-164.5 "/>
<text text-anchor="start" x="44" y="-149.3" font-family="Times,serif" font-size="14.00">_layout</text>
<text text-anchor="start" x="44" y="-134.3" font-family="Times,serif" font-size="14.00">set_bus_line</text>
</g>
<!-- BusStationsController -->
<g id="node9" class="node"><title>BusStationsController</title>
<path fill="none" stroke="black" d="M354,-162.5C354,-162.5 467,-162.5 467,-162.5 473,-162.5 479,-168.5 479,-174.5 479,-174.5 479,-378.5 479,-378.5 479,-384.5 473,-390.5 467,-390.5 467,-390.5 354,-390.5 354,-390.5 348,-390.5 342,-384.5 342,-378.5 342,-378.5 342,-174.5 342,-174.5 342,-168.5 348,-162.5 354,-162.5"/>
<text text-anchor="middle" x="410.5" y="-375.3" font-family="Times,serif" font-size="14.00">BusStationsController</text>
<polyline fill="none" stroke="black" points="342,-367.5 479,-367.5 "/>
<text text-anchor="start" x="350" y="-352.3" font-family="Times,serif" font-size="14.00">create</text>
<text text-anchor="start" x="350" y="-337.3" font-family="Times,serif" font-size="14.00">destroy</text>
<text text-anchor="start" x="350" y="-322.3" font-family="Times,serif" font-size="14.00">edit</text>
<text text-anchor="start" x="350" y="-307.3" font-family="Times,serif" font-size="14.00">import</text>
<text text-anchor="start" x="350" y="-292.3" font-family="Times,serif" font-size="14.00">index</text>
<text text-anchor="start" x="350" y="-277.3" font-family="Times,serif" font-size="14.00">new</text>
<text text-anchor="start" x="350" y="-262.3" font-family="Times,serif" font-size="14.00">show</text>
<text text-anchor="start" x="350" y="-247.3" font-family="Times,serif" font-size="14.00">update</text>
<polyline fill="none" stroke="black" points="342,-239.5 479,-239.5 "/>
<polyline fill="none" stroke="black" points="342,-215.5 479,-215.5 "/>
<text text-anchor="start" x="350" y="-200.3" font-family="Times,serif" font-size="14.00">_layout</text>
<text text-anchor="start" x="350" y="-185.3" font-family="Times,serif" font-size="14.00">bus_station_params</text>
<text text-anchor="start" x="350" y="-170.3" font-family="Times,serif" font-size="14.00">set_bus_station</text>
</g>
<!-- LinksController -->
<g id="node10" class="node"><title>LinksController</title>
<path fill="none" stroke="black" d="M534,-162.5C534,-162.5 613,-162.5 613,-162.5 619,-162.5 625,-168.5 625,-174.5 625,-174.5 625,-243.5 625,-243.5 625,-249.5 619,-255.5 613,-255.5 613,-255.5 534,-255.5 534,-255.5 528,-255.5 522,-249.5 522,-243.5 522,-243.5 522,-174.5 522,-174.5 522,-168.5 528,-162.5 534,-162.5"/>
<text text-anchor="middle" x="573.5" y="-240.3" font-family="Times,serif" font-size="14.00">LinksController</text>
<polyline fill="none" stroke="black" points="522,-232.5 625,-232.5 "/>
<text text-anchor="start" x="530" y="-217.3" font-family="Times,serif" font-size="14.00">index</text>
<polyline fill="none" stroke="black" points="522,-209.5 625,-209.5 "/>
<polyline fill="none" stroke="black" points="522,-185.5 625,-185.5 "/>
<text text-anchor="start" x="530" y="-170.3" font-family="Times,serif" font-size="14.00">_layout</text>
</g>
</g>
</svg>
