<?xml version="1.0" encoding="UTF-8" standalone="no"?>
<!DOCTYPE svg PUBLIC "-//W3C//DTD SVG 1.1//EN"
 "http://www.w3.org/Graphics/SVG/1.1/DTD/svg11.dtd">
<!-- Generated by graphviz version 2.36.0 (20140111.2315)
 -->
<!-- Title: models_diagram Pages: 1 -->
<svg width="639pt" height="302pt"
 viewBox="0.00 0.00 639.00 302.00" xmlns="http://www.w3.org/2000/svg" xmlns:xlink="http://www.w3.org/1999/xlink">
<g id="graph0" class="graph" transform="scale(1 1) rotate(0) translate(4 298)">
<title>models_diagram</title>
<polygon fill="none" stroke="none" points="-4,4 -4,-298 635,-298 635,4 -4,4"/>
<!-- _diagram_info -->
<g id="node1" class="node"><title>_diagram_info</title>
<text text-anchor="start" x="8" y="-279.6" font-family="Times,serif" font-size="13.00">Models diagram</text>
<text text-anchor="start" x="8" y="-265.6" font-family="Times,serif" font-size="13.00">Date: May 17 2017 &#45; 09:24</text>
<text text-anchor="start" x="8" y="-251.6" font-family="Times,serif" font-size="13.00">Migration version: 20170424032636</text>
<text text-anchor="start" x="8" y="-237.6" font-family="Times,serif" font-size="13.00">Generated by RailRoady 1.5.2</text>
<text text-anchor="start" x="8" y="-223.6" font-family="Times,serif" font-size="13.00">http://railroady.prestonlee.com</text>
</g>
<!-- BusLine -->
<g id="node2" class="node"><title>BusLine</title>
<ellipse fill="none" stroke="black" cx="272" cy="-255" rx="39.9464" ry="18"/>
<text text-anchor="middle" x="272" y="-251.3" font-family="Times,serif" font-size="14.00">BusLine</text>
</g>
<!-- BusRoute -->
<g id="node9" class="node"><title>BusRoute</title>
<ellipse fill="none" stroke="black" cx="272" cy="-162" rx="45.244" ry="18"/>
<text text-anchor="middle" x="272" y="-158.3" font-family="Times,serif" font-size="14.00">BusRoute</text>
</g>
<!-- BusLine&#45;&gt;BusRoute -->
<g id="edge1" class="edge"><title>BusLine&#45;&gt;BusRoute</title>
<path fill="none" stroke="#1c4975" d="M272,-228.729C272,-216.725 272,-202.362 272,-190.129"/>
<ellipse fill="none" stroke="#1c4975" cx="272" cy="-232.884" rx="4" ry="4"/>
<polygon fill="#1c4975" stroke="#1c4975" points="272,-190.04 276.5,-180.04 272,-185.04 272,-180.04 272,-180.04 272,-180.04 272,-185.04 267.5,-180.04 272,-190.04 272,-190.04"/>
</g>
<!-- TimeNode -->
<g id="node3" class="node"><title>TimeNode</title>
<ellipse fill="none" stroke="black" cx="105" cy="-18" rx="48.6179" ry="18"/>
<text text-anchor="middle" x="105" y="-14.3" font-family="Times,serif" font-size="14.00">TimeNode</text>
</g>
<!-- ListTimeNode -->
<g id="node4" class="node"><title>ListTimeNode</title>
<ellipse fill="none" stroke="black" cx="150" cy="-90" rx="62.0922" ry="18"/>
<text text-anchor="middle" x="150" y="-86.3" font-family="Times,serif" font-size="14.00">ListTimeNode</text>
</g>
<!-- ListTimeNode&#45;&gt;TimeNode -->
<g id="edge2" class="edge"><title>ListTimeNode&#45;&gt;TimeNode</title>
<path fill="none" stroke="#60d5f9" d="M134.751,-65.28C130.471,-58.6217 125.799,-51.3535 121.452,-44.5915"/>
<ellipse fill="none" stroke="#60d5f9" cx="136.944" cy="-68.6902" rx="4.00002" ry="4.00002"/>
<polygon fill="#60d5f9" stroke="#60d5f9" points="121.201,-44.2008 119.578,-33.3556 118.497,-39.9949 115.793,-35.789 115.793,-35.789 115.793,-35.789 118.497,-39.9949 112.008,-38.2224 121.201,-44.2008 121.201,-44.2008"/>
</g>
<!-- Distance -->
<g id="node5" class="node"><title>Distance</title>
<ellipse fill="none" stroke="black" cx="272" cy="-90" rx="41.394" ry="18"/>
<text text-anchor="middle" x="272" y="-86.3" font-family="Times,serif" font-size="14.00">Distance</text>
</g>
<!-- Link -->
<g id="node6" class="node"><title>Link</title>
<ellipse fill="none" stroke="black" cx="358" cy="-255" rx="26.949" ry="18"/>
<text text-anchor="middle" x="358" y="-251.3" font-family="Times,serif" font-size="14.00">Link</text>
</g>
<!-- ApplicationRecord -->
<g id="node7" class="node"><title>ApplicationRecord</title>
<ellipse fill="none" stroke="black" cx="481" cy="-255" rx="77.0154" ry="18"/>
<text text-anchor="middle" x="481" y="-251.3" font-family="Times,serif" font-size="14.00">ApplicationRecord</text>
</g>
<!-- User -->
<g id="node8" class="node"><title>User</title>
<ellipse fill="none" stroke="black" cx="604" cy="-255" rx="26.949" ry="18"/>
<text text-anchor="middle" x="604" y="-251.3" font-family="Times,serif" font-size="14.00">User</text>
</g>
<!-- BusRoute&#45;&gt;TimeNode -->
<g id="edge6" class="edge"><title>BusRoute&#45;&gt;TimeNode</title>
<path fill="none" stroke="#349d57" d="M221.587,-154.125C170.388,-145.988 96.2478,-130.623 79,-108 64.8454,-89.4344 75.0736,-63.3397 86.6004,-44.2056"/>
<ellipse fill="none" stroke="#349d57" cx="225.643" cy="-154.755" rx="4.00001" ry="4.00001"/>
<polygon fill="#349d57" stroke="#349d57" points="86.6669,-44.1023 95.8659,-38.1332 89.375,-39.8991 92.083,-35.696 92.083,-35.696 92.083,-35.696 89.375,-39.8991 88.3002,-33.2587 86.6669,-44.1023 86.6669,-44.1023"/>
</g>
<!-- BusRoute&#45;&gt;ListTimeNode -->
<g id="edge7" class="edge"><title>BusRoute&#45;&gt;ListTimeNode</title>
<path fill="none" stroke="#a2eead" d="M240.309,-142.816C223.511,-133.178 202.824,-121.309 185.49,-111.363"/>
<ellipse fill="none" stroke="#a2eead" cx="243.842" cy="-144.844" rx="4.00002" ry="4.00002"/>
<polygon fill="#a2eead" stroke="#a2eead" points="185.442,-111.336 179.008,-102.456 181.106,-108.847 176.769,-106.359 176.769,-106.359 176.769,-106.359 181.106,-108.847 174.529,-110.262 185.442,-111.336 185.442,-111.336"/>
</g>
<!-- BusRoute&#45;&gt;Distance -->
<g id="edge5" class="edge"><title>BusRoute&#45;&gt;Distance</title>
<path fill="none" stroke="#fcc0aa" d="M272,-135.64C272,-130.063 272,-124.132 272,-118.476"/>
<ellipse fill="none" stroke="#fcc0aa" cx="272" cy="-139.697" rx="4" ry="4"/>
<polygon fill="#fcc0aa" stroke="#fcc0aa" points="272,-118.104 276.5,-108.104 272,-113.104 272,-108.104 272,-108.104 272,-108.104 272,-113.104 267.5,-108.104 272,-118.104 272,-118.104"/>
</g>
<!-- BusStationRoute -->
<g id="node10" class="node"><title>BusStationRoute</title>
<ellipse fill="none" stroke="black" cx="342" cy="-18" rx="70.2909" ry="18"/>
<text text-anchor="middle" x="342" y="-14.3" font-family="Times,serif" font-size="14.00">BusStationRoute</text>
</g>
<!-- BusRoute&#45;&gt;BusStationRoute -->
<g id="edge3" class="edge"><title>BusRoute&#45;&gt;BusStationRoute</title>
<path fill="none" stroke="#b0630b" d="M297.158,-139.675C306.233,-130.751 315.765,-119.728 322,-108 332.192,-88.8299 337.204,-64.668 339.66,-46.3585"/>
<ellipse fill="none" stroke="#b0630b" cx="294.204" cy="-142.472" rx="4.00002" ry="4.00002"/>
<polygon fill="#b0630b" stroke="#b0630b" points="339.671,-46.2688 345.301,-36.8587 340.251,-41.3026 340.832,-36.3364 340.832,-36.3364 340.832,-36.3364 340.251,-41.3026 336.362,-35.8141 339.671,-46.2688 339.671,-46.2688"/>
</g>
<!-- BusStation -->
<g id="node11" class="node"><title>BusStation</title>
<ellipse fill="none" stroke="black" cx="419" cy="-90" rx="49.0941" ry="18"/>
<text text-anchor="middle" x="419" y="-86.3" font-family="Times,serif" font-size="14.00">BusStation</text>
</g>
<!-- BusRoute&#45;&gt;BusStation -->
<g id="edge4" class="edge"><title>BusRoute&#45;&gt;BusStation</title>
<path fill="none" stroke="#c69f11" d="M309.243,-143.265C331.284,-132.77 359.129,-119.51 381.257,-108.973"/>
<polygon fill="#c69f11" stroke="#c69f11" points="309.024,-143.369 298.061,-143.606 304.51,-145.519 299.996,-147.669 299.996,-147.669 299.996,-147.669 304.51,-145.519 301.93,-151.732 309.024,-143.369 309.024,-143.369"/>
<polygon fill="#c69f11" stroke="#c69f11" points="381.328,-108.939 392.291,-108.703 385.842,-106.789 390.356,-104.64 390.356,-104.64 390.356,-104.64 385.842,-106.789 388.422,-100.577 381.328,-108.939 381.328,-108.939"/>
</g>
<!-- BusStation&#45;&gt;BusStationRoute -->
<g id="edge8" class="edge"><title>BusStation&#45;&gt;BusStationRoute</title>
<path fill="none" stroke="#e5d77d" d="M395.472,-67.6111C386.705,-59.6408 376.711,-50.5552 367.754,-42.4126"/>
<ellipse fill="none" stroke="#e5d77d" cx="398.568" cy="-70.4252" rx="4.00002" ry="4.00002"/>
<polygon fill="#e5d77d" stroke="#e5d77d" points="367.606,-42.2784 363.234,-32.2219 363.906,-38.915 360.207,-35.5516 360.207,-35.5516 360.207,-35.5516 363.906,-38.915 357.18,-38.8814 367.606,-42.2784 367.606,-42.2784"/>
</g>
<!-- Node -->
<g id="node12" class="node"><title>Node</title>
<ellipse fill="none" stroke="black" cx="460" cy="-18" rx="29.3479" ry="18"/>
<text text-anchor="middle" x="460" y="-14.3" font-family="Times,serif" font-size="14.00">Node</text>
</g>
<!-- BusStation&#45;&gt;Node -->
<g id="edge9" class="edge"><title>BusStation&#45;&gt;Node</title>
<path fill="none" stroke="#41b8cb" d="M433.122,-64.8894C437.054,-58.1752 441.335,-50.8673 445.3,-44.0979"/>
<ellipse fill="none" stroke="#41b8cb" cx="430.947" cy="-68.6034" rx="4.00002" ry="4.00002"/>
<polygon fill="#41b8cb" stroke="#41b8cb" points="445.395,-43.9358 454.332,-37.5813 447.922,-39.6214 450.449,-35.307 450.449,-35.307 450.449,-35.307 447.922,-39.6214 446.566,-33.0327 445.395,-43.9358 445.395,-43.9358"/>
</g>
</g>
</svg>
