<?xml version="1.0" encoding="UTF-8" standalone="no"?>
<!DOCTYPE svg PUBLIC "-//W3C//DTD SVG 1.1//EN"
 "http://www.w3.org/Graphics/SVG/1.1/DTD/svg11.dtd">
<!-- Generated by graphviz version 2.36.0 (20140111.2315)
 -->
<!-- Title: models_diagram Pages: 1 -->
<svg width="1354pt" height="772pt"
 viewBox="0.00 0.00 1354.00 772.00" xmlns="http://www.w3.org/2000/svg" xmlns:xlink="http://www.w3.org/1999/xlink">
<g id="graph0" class="graph" transform="scale(1 1) rotate(0) translate(4 768)">
<title>models_diagram</title>
<polygon fill="none" stroke="none" points="-4,4 -4,-768 1350,-768 1350,4 -4,4"/>
<!-- _diagram_info -->
<g id="node1" class="node"><title>_diagram_info</title>
<text text-anchor="start" x="113" y="-674.6" font-family="Times,serif" font-size="13.00">Models diagram</text>
<text text-anchor="start" x="113" y="-660.6" font-family="Times,serif" font-size="13.00">Date: May 17 2017 &#45; 09:24</text>
<text text-anchor="start" x="113" y="-646.6" font-family="Times,serif" font-size="13.00">Migration version: 20170424032636</text>
<text text-anchor="start" x="113" y="-632.6" font-family="Times,serif" font-size="13.00">Generated by RailRoady 1.5.2</text>
<text text-anchor="start" x="113" y="-618.6" font-family="Times,serif" font-size="13.00">http://railroady.prestonlee.com</text>
</g>
<!-- BusLine -->
<g id="node2" class="node"><title>BusLine</title>
<path fill="none" stroke="black" d="M349,-567C349,-567 569,-567 569,-567 575,-567 581,-573 581,-579 581,-579 581,-721 581,-721 581,-727 575,-733 569,-733 569,-733 349,-733 349,-733 343,-733 337,-727 337,-721 337,-721 337,-579 337,-579 337,-573 343,-567 349,-567"/>
<text text-anchor="middle" x="459" y="-717.8" font-family="Times,serif" font-size="14.00">BusLine</text>
<polyline fill="none" stroke="black" points="337,-710 581,-710 "/>
<text text-anchor="start" x="345" y="-694.8" font-family="Times,serif" font-size="14.00">id :integer</text>
<text text-anchor="start" x="345" y="-679.8" font-family="Times,serif" font-size="14.00">name :character varying</text>
<text text-anchor="start" x="345" y="-664.8" font-family="Times,serif" font-size="14.00">operating_from :time without time zone</text>
<text text-anchor="start" x="345" y="-649.8" font-family="Times,serif" font-size="14.00">operating_to :time without time zone</text>
<text text-anchor="start" x="345" y="-634.8" font-family="Times,serif" font-size="14.00">in_charge_unit :text</text>
<text text-anchor="start" x="345" y="-619.8" font-family="Times,serif" font-size="14.00">ticket_fee :integer</text>
<text text-anchor="start" x="345" y="-604.8" font-family="Times,serif" font-size="14.00">description :text</text>
<text text-anchor="start" x="345" y="-589.8" font-family="Times,serif" font-size="14.00">created_at :timestamp without time zone</text>
<text text-anchor="start" x="345" y="-574.8" font-family="Times,serif" font-size="14.00">updated_at :timestamp without time zone</text>
</g>
<!-- BusRoute -->
<g id="node9" class="node"><title>BusRoute</title>
<path fill="none" stroke="black" d="M349,-378.5C349,-378.5 569,-378.5 569,-378.5 575,-378.5 581,-384.5 581,-390.5 581,-390.5 581,-487.5 581,-487.5 581,-493.5 575,-499.5 569,-499.5 569,-499.5 349,-499.5 349,-499.5 343,-499.5 337,-493.5 337,-487.5 337,-487.5 337,-390.5 337,-390.5 337,-384.5 343,-378.5 349,-378.5"/>
<text text-anchor="middle" x="459" y="-484.3" font-family="Times,serif" font-size="14.00">BusRoute</text>
<polyline fill="none" stroke="black" points="337,-476.5 581,-476.5 "/>
<text text-anchor="start" x="345" y="-461.3" font-family="Times,serif" font-size="14.00">id :integer</text>
<text text-anchor="start" x="345" y="-446.3" font-family="Times,serif" font-size="14.00">bus_type :integer</text>
<text text-anchor="start" x="345" y="-431.3" font-family="Times,serif" font-size="14.00">list_bus_stations :text</text>
<text text-anchor="start" x="345" y="-416.3" font-family="Times,serif" font-size="14.00">bus_line_id :integer</text>
<text text-anchor="start" x="345" y="-401.3" font-family="Times,serif" font-size="14.00">created_at :timestamp without time zone</text>
<text text-anchor="start" x="345" y="-386.3" font-family="Times,serif" font-size="14.00">updated_at :timestamp without time zone</text>
</g>
<!-- BusLine&#45;&gt;BusRoute -->
<g id="edge1" class="edge"><title>BusLine&#45;&gt;BusRoute</title>
<path fill="none" stroke="#7463e0" d="M459,-558.799C459,-542.432 459,-525.588 459,-509.914"/>
<ellipse fill="none" stroke="#7463e0" cx="459" cy="-562.998" rx="4" ry="4"/>
<polygon fill="#7463e0" stroke="#7463e0" points="459,-509.799 463.5,-499.799 459,-504.799 459,-499.799 459,-499.799 459,-499.799 459,-504.799 454.5,-499.799 459,-509.799 459,-509.799"/>
</g>
<!-- TimeNode -->
<g id="node3" class="node"><title>TimeNode</title>
<path fill="none" stroke="black" d="M12,-1C12,-1 232,-1 232,-1 238,-1 244,-7 244,-13 244,-13 244,-125 244,-125 244,-131 238,-137 232,-137 232,-137 12,-137 12,-137 6,-137 0,-131 0,-125 0,-125 0,-13 0,-13 0,-7 6,-1 12,-1"/>
<text text-anchor="middle" x="122" y="-121.8" font-family="Times,serif" font-size="14.00">TimeNode</text>
<polyline fill="none" stroke="black" points="0,-114 244,-114 "/>
<text text-anchor="start" x="8" y="-98.8" font-family="Times,serif" font-size="14.00">id :integer</text>
<text text-anchor="start" x="8" y="-83.8" font-family="Times,serif" font-size="14.00">bus_route_id :integer</text>
<text text-anchor="start" x="8" y="-68.8" font-family="Times,serif" font-size="14.00">bus_station_id :integer</text>
<text text-anchor="start" x="8" y="-53.8" font-family="Times,serif" font-size="14.00">arrival_time :time without time zone</text>
<text text-anchor="start" x="8" y="-38.8" font-family="Times,serif" font-size="14.00">list_time_node_id :integer</text>
<text text-anchor="start" x="8" y="-23.8" font-family="Times,serif" font-size="14.00">created_at :timestamp without time zone</text>
<text text-anchor="start" x="8" y="-8.8" font-family="Times,serif" font-size="14.00">updated_at :timestamp without time zone</text>
</g>
<!-- ListTimeNode -->
<g id="node4" class="node"><title>ListTimeNode</title>
<path fill="none" stroke="black" d="M87,-205C87,-205 307,-205 307,-205 313,-205 319,-211 319,-217 319,-217 319,-299 319,-299 319,-305 313,-311 307,-311 307,-311 87,-311 87,-311 81,-311 75,-305 75,-299 75,-299 75,-217 75,-217 75,-211 81,-205 87,-205"/>
<text text-anchor="middle" x="197" y="-295.8" font-family="Times,serif" font-size="14.00">ListTimeNode</text>
<polyline fill="none" stroke="black" points="75,-288 319,-288 "/>
<text text-anchor="start" x="83" y="-272.8" font-family="Times,serif" font-size="14.00">id :integer</text>
<text text-anchor="start" x="83" y="-257.8" font-family="Times,serif" font-size="14.00">bus_route_id :integer</text>
<text text-anchor="start" x="83" y="-242.8" font-family="Times,serif" font-size="14.00">list :text</text>
<text text-anchor="start" x="83" y="-227.8" font-family="Times,serif" font-size="14.00">created_at :timestamp without time zone</text>
<text text-anchor="start" x="83" y="-212.8" font-family="Times,serif" font-size="14.00">updated_at :timestamp without time zone</text>
</g>
<!-- ListTimeNode&#45;&gt;TimeNode -->
<g id="edge2" class="edge"><title>ListTimeNode&#45;&gt;TimeNode</title>
<path fill="none" stroke="#93f624" d="M173.098,-197.405C166.614,-181.238 159.503,-163.508 152.701,-146.547"/>
<ellipse fill="none" stroke="#93f624" cx="174.619" cy="-201.198" rx="4.00001" ry="4.00001"/>
<polygon fill="#93f624" stroke="#93f624" points="152.682,-146.5 153.136,-135.543 150.82,-141.859 148.959,-137.218 148.959,-137.218 148.959,-137.218 150.82,-141.859 144.783,-138.893 152.682,-146.5 152.682,-146.5"/>
</g>
<!-- Distance -->
<g id="node5" class="node"><title>Distance</title>
<path fill="none" stroke="black" d="M349,-182.5C349,-182.5 569,-182.5 569,-182.5 575,-182.5 581,-188.5 581,-194.5 581,-194.5 581,-321.5 581,-321.5 581,-327.5 575,-333.5 569,-333.5 569,-333.5 349,-333.5 349,-333.5 343,-333.5 337,-327.5 337,-321.5 337,-321.5 337,-194.5 337,-194.5 337,-188.5 343,-182.5 349,-182.5"/>
<text text-anchor="middle" x="459" y="-318.3" font-family="Times,serif" font-size="14.00">Distance</text>
<polyline fill="none" stroke="black" points="337,-310.5 581,-310.5 "/>
<text text-anchor="start" x="345" y="-295.3" font-family="Times,serif" font-size="14.00">id :integer</text>
<text text-anchor="start" x="345" y="-280.3" font-family="Times,serif" font-size="14.00">origin :integer</text>
<text text-anchor="start" x="345" y="-265.3" font-family="Times,serif" font-size="14.00">destination :integer</text>
<text text-anchor="start" x="345" y="-250.3" font-family="Times,serif" font-size="14.00">distance_metter :double precision</text>
<text text-anchor="start" x="345" y="-235.3" font-family="Times,serif" font-size="14.00">bus_route_id :integer</text>
<text text-anchor="start" x="345" y="-220.3" font-family="Times,serif" font-size="14.00">route :text</text>
<text text-anchor="start" x="345" y="-205.3" font-family="Times,serif" font-size="14.00">created_at :timestamp without time zone</text>
<text text-anchor="start" x="345" y="-190.3" font-family="Times,serif" font-size="14.00">updated_at :timestamp without time zone</text>
</g>
<!-- Link -->
<g id="node6" class="node"><title>Link</title>
<path fill="none" stroke="black" d="M611,-589.5C611,-589.5 831,-589.5 831,-589.5 837,-589.5 843,-595.5 843,-601.5 843,-601.5 843,-698.5 843,-698.5 843,-704.5 837,-710.5 831,-710.5 831,-710.5 611,-710.5 611,-710.5 605,-710.5 599,-704.5 599,-698.5 599,-698.5 599,-601.5 599,-601.5 599,-595.5 605,-589.5 611,-589.5"/>
<text text-anchor="middle" x="721" y="-695.3" font-family="Times,serif" font-size="14.00">Link</text>
<polyline fill="none" stroke="black" points="599,-687.5 843,-687.5 "/>
<text text-anchor="start" x="607" y="-672.3" font-family="Times,serif" font-size="14.00">id :integer</text>
<text text-anchor="start" x="607" y="-657.3" font-family="Times,serif" font-size="14.00">origin :integer</text>
<text text-anchor="start" x="607" y="-642.3" font-family="Times,serif" font-size="14.00">destination :integer</text>
<text text-anchor="start" x="607" y="-627.3" font-family="Times,serif" font-size="14.00">cost :double precision</text>
<text text-anchor="start" x="607" y="-612.3" font-family="Times,serif" font-size="14.00">created_at :timestamp without time zone</text>
<text text-anchor="start" x="607" y="-597.3" font-family="Times,serif" font-size="14.00">updated_at :timestamp without time zone</text>
</g>
<!-- ApplicationRecord -->
<g id="node7" class="node"><title>ApplicationRecord</title>
<ellipse fill="none" stroke="black" cx="938" cy="-650" rx="77.0154" ry="18"/>
<text text-anchor="middle" x="938" y="-646.3" font-family="Times,serif" font-size="14.00">ApplicationRecord</text>
</g>
<!-- User -->
<g id="node8" class="node"><title>User</title>
<path fill="none" stroke="black" d="M1045.5,-537C1045.5,-537 1334.5,-537 1334.5,-537 1340.5,-537 1346.5,-543 1346.5,-549 1346.5,-549 1346.5,-751 1346.5,-751 1346.5,-757 1340.5,-763 1334.5,-763 1334.5,-763 1045.5,-763 1045.5,-763 1039.5,-763 1033.5,-757 1033.5,-751 1033.5,-751 1033.5,-549 1033.5,-549 1033.5,-543 1039.5,-537 1045.5,-537"/>
<text text-anchor="middle" x="1190" y="-747.8" font-family="Times,serif" font-size="14.00">User</text>
<polyline fill="none" stroke="black" points="1033.5,-740 1346.5,-740 "/>
<text text-anchor="start" x="1041.5" y="-724.8" font-family="Times,serif" font-size="14.00">id :integer</text>
<text text-anchor="start" x="1041.5" y="-709.8" font-family="Times,serif" font-size="14.00">email :character varying</text>
<text text-anchor="start" x="1041.5" y="-694.8" font-family="Times,serif" font-size="14.00">encrypted_password :character varying</text>
<text text-anchor="start" x="1041.5" y="-679.8" font-family="Times,serif" font-size="14.00">reset_password_token :character varying</text>
<text text-anchor="start" x="1041.5" y="-664.8" font-family="Times,serif" font-size="14.00">reset_password_sent_at :timestamp without time zone</text>
<text text-anchor="start" x="1041.5" y="-649.8" font-family="Times,serif" font-size="14.00">remember_created_at :timestamp without time zone</text>
<text text-anchor="start" x="1041.5" y="-634.8" font-family="Times,serif" font-size="14.00">sign_in_count :integer</text>
<text text-anchor="start" x="1041.5" y="-619.8" font-family="Times,serif" font-size="14.00">current_sign_in_at :timestamp without time zone</text>
<text text-anchor="start" x="1041.5" y="-604.8" font-family="Times,serif" font-size="14.00">last_sign_in_at :timestamp without time zone</text>
<text text-anchor="start" x="1041.5" y="-589.8" font-family="Times,serif" font-size="14.00">current_sign_in_ip :character varying</text>
<text text-anchor="start" x="1041.5" y="-574.8" font-family="Times,serif" font-size="14.00">last_sign_in_ip :character varying</text>
<text text-anchor="start" x="1041.5" y="-559.8" font-family="Times,serif" font-size="14.00">created_at :timestamp without time zone</text>
<text text-anchor="start" x="1041.5" y="-544.8" font-family="Times,serif" font-size="14.00">updated_at :timestamp without time zone</text>
</g>
<!-- BusRoute&#45;&gt;TimeNode -->
<g id="edge6" class="edge"><title>BusRoute&#45;&gt;TimeNode</title>
<path fill="none" stroke="#da121c" d="M328.775,-423.477C227.341,-409.165 98.4637,-383.348 66,-342 22.3175,-286.363 47.0995,-205.156 76.2176,-145.964"/>
<ellipse fill="none" stroke="#da121c" cx="332.991" cy="-424.063" rx="4.00001" ry="4.00001"/>
<polygon fill="#da121c" stroke="#da121c" points="76.2216,-145.956 84.7448,-139.057 78.4746,-141.493 80.7275,-137.029 80.7275,-137.029 80.7275,-137.029 78.4746,-141.493 76.7102,-135.001 76.2216,-145.956 76.2216,-145.956"/>
</g>
<!-- BusRoute&#45;&gt;ListTimeNode -->
<g id="edge7" class="edge"><title>BusRoute&#45;&gt;ListTimeNode</title>
<path fill="none" stroke="#b2235a" d="M364.983,-373.767C337.836,-355.22 308.381,-335.096 281.827,-316.955"/>
<ellipse fill="none" stroke="#b2235a" cx="368.455" cy="-376.139" rx="4.00002" ry="4.00002"/>
<polygon fill="#b2235a" stroke="#b2235a" points="281.572,-316.78 275.853,-307.423 277.443,-313.959 273.315,-311.139 273.315,-311.139 273.315,-311.139 277.443,-313.959 270.776,-314.854 281.572,-316.78 281.572,-316.78"/>
</g>
<!-- BusRoute&#45;&gt;Distance -->
<g id="edge5" class="edge"><title>BusRoute&#45;&gt;Distance</title>
<path fill="none" stroke="#a4ab51" d="M459,-370.219C459,-361.533 459,-352.557 459,-343.645"/>
<ellipse fill="none" stroke="#a4ab51" cx="459" cy="-374.396" rx="4" ry="4"/>
<polygon fill="#a4ab51" stroke="#a4ab51" points="459,-343.63 463.5,-333.63 459,-338.63 459,-333.63 459,-333.63 459,-333.63 459,-338.63 454.5,-333.63 459,-343.63 459,-343.63"/>
</g>
<!-- BusStationRoute -->
<g id="node10" class="node"><title>BusStationRoute</title>
<path fill="none" stroke="black" d="M499,-16C499,-16 719,-16 719,-16 725,-16 731,-22 731,-28 731,-28 731,-110 731,-110 731,-116 725,-122 719,-122 719,-122 499,-122 499,-122 493,-122 487,-116 487,-110 487,-110 487,-28 487,-28 487,-22 493,-16 499,-16"/>
<text text-anchor="middle" x="609" y="-106.8" font-family="Times,serif" font-size="14.00">BusStationRoute</text>
<polyline fill="none" stroke="black" points="487,-99 731,-99 "/>
<text text-anchor="start" x="495" y="-83.8" font-family="Times,serif" font-size="14.00">id :integer</text>
<text text-anchor="start" x="495" y="-68.8" font-family="Times,serif" font-size="14.00">bus_route_id :integer</text>
<text text-anchor="start" x="495" y="-53.8" font-family="Times,serif" font-size="14.00">bus_station_id :integer</text>
<text text-anchor="start" x="495" y="-38.8" font-family="Times,serif" font-size="14.00">created_at :timestamp without time zone</text>
<text text-anchor="start" x="495" y="-23.8" font-family="Times,serif" font-size="14.00">updated_at :timestamp without time zone</text>
</g>
<!-- BusRoute&#45;&gt;BusStationRoute -->
<g id="edge3" class="edge"><title>BusRoute&#45;&gt;BusStationRoute</title>
<path fill="none" stroke="#92e70f" d="M566.71,-372.58C575.803,-363.341 583.854,-353.143 590,-342 625.695,-277.286 624.919,-190.339 618.88,-132.346"/>
<ellipse fill="none" stroke="#92e70f" cx="563.789" cy="-375.421" rx="4.00002" ry="4.00002"/>
<polygon fill="#92e70f" stroke="#92e70f" points="618.859,-132.162 622.214,-121.722 618.3,-127.194 617.742,-122.225 617.742,-122.225 617.742,-122.225 618.3,-127.194 613.27,-122.728 618.859,-132.162 618.859,-132.162"/>
</g>
<!-- BusStation -->
<g id="node11" class="node"><title>BusStation</title>
<path fill="none" stroke="black" d="M649,-175C649,-175 869,-175 869,-175 875,-175 881,-181 881,-187 881,-187 881,-329 881,-329 881,-335 875,-341 869,-341 869,-341 649,-341 649,-341 643,-341 637,-335 637,-329 637,-329 637,-187 637,-187 637,-181 643,-175 649,-175"/>
<text text-anchor="middle" x="759" y="-325.8" font-family="Times,serif" font-size="14.00">BusStation</text>
<polyline fill="none" stroke="black" points="637,-318 881,-318 "/>
<text text-anchor="start" x="645" y="-302.8" font-family="Times,serif" font-size="14.00">id :integer</text>
<text text-anchor="start" x="645" y="-287.8" font-family="Times,serif" font-size="14.00">latitude :double precision</text>
<text text-anchor="start" x="645" y="-272.8" font-family="Times,serif" font-size="14.00">longitude :double precision</text>
<text text-anchor="start" x="645" y="-257.8" font-family="Times,serif" font-size="14.00">name :character varying</text>
<text text-anchor="start" x="645" y="-242.8" font-family="Times,serif" font-size="14.00">address :character varying</text>
<text text-anchor="start" x="645" y="-227.8" font-family="Times,serif" font-size="14.00">title :character varying</text>
<text text-anchor="start" x="645" y="-212.8" font-family="Times,serif" font-size="14.00">code :character varying</text>
<text text-anchor="start" x="645" y="-197.8" font-family="Times,serif" font-size="14.00">created_at :timestamp without time zone</text>
<text text-anchor="start" x="645" y="-182.8" font-family="Times,serif" font-size="14.00">updated_at :timestamp without time zone</text>
</g>
<!-- BusRoute&#45;&gt;BusStation -->
<g id="edge4" class="edge"><title>BusRoute&#45;&gt;BusStation</title>
<path fill="none" stroke="#32b5e5" d="M570.179,-373.29C587.88,-362.881 605.965,-352.183 623,-342 624.692,-340.989 626.394,-339.97 628.107,-338.944"/>
<polygon fill="#32b5e5" stroke="#32b5e5" points="570.149,-373.308 559.248,-374.493 565.838,-375.84 561.527,-378.373 561.527,-378.373 561.527,-378.373 565.838,-375.84 563.807,-382.253 570.149,-373.308 570.149,-373.308"/>
<polygon fill="#32b5e5" stroke="#32b5e5" points="628.162,-338.911 639.052,-337.621 632.448,-336.337 636.735,-333.763 636.735,-333.763 636.735,-333.763 632.448,-336.337 634.419,-329.905 628.162,-338.911 628.162,-338.911"/>
</g>
<!-- BusStation&#45;&gt;BusStationRoute -->
<g id="edge8" class="edge"><title>BusStation&#45;&gt;BusStationRoute</title>
<path fill="none" stroke="#039164" d="M688.128,-168.646C677.639,-155.571 667.043,-142.36 657.162,-130.042"/>
<ellipse fill="none" stroke="#039164" cx="690.705" cy="-171.859" rx="4.00002" ry="4.00002"/>
<polygon fill="#039164" stroke="#039164" points="657.038,-129.888 654.291,-119.271 653.91,-125.987 650.781,-122.087 650.781,-122.087 650.781,-122.087 653.91,-125.987 647.271,-124.903 657.038,-129.888 657.038,-129.888"/>
</g>
<!-- Node -->
<g id="node12" class="node"><title>Node</title>
<ellipse fill="none" stroke="black" cx="779" cy="-69" rx="29.3479" ry="18"/>
<text text-anchor="middle" x="779" y="-65.3" font-family="Times,serif" font-size="14.00">Node</text>
</g>
<!-- BusStation&#45;&gt;Node -->
<g id="edge9" class="edge"><title>BusStation&#45;&gt;Node</title>
<path fill="none" stroke="#568c2a" d="M768.643,-166.835C771.366,-141.376 774.124,-115.586 776.109,-97.0299"/>
<ellipse fill="none" stroke="#568c2a" cx="768.198" cy="-171.002" rx="4" ry="4"/>
<polygon fill="#568c2a" stroke="#568c2a" points="776.119,-96.9406 781.657,-87.4759 776.65,-91.969 777.182,-86.9973 777.182,-86.9973 777.182,-86.9973 776.65,-91.969 772.708,-86.5187 776.119,-96.9406 776.119,-96.9406"/>
</g>
</g>
</svg>
